<?xml version="1.0" standalone="no"?>
<!DOCTYPE svg PUBLIC "-//W3C//DTD SVG 20010904//EN"
 "http://www.w3.org/TR/2001/REC-SVG-20010904/DTD/svg10.dtd">
<svg version="1.0" xmlns="http://www.w3.org/2000/svg"
 width="153.000000pt" height="148.000000pt" viewBox="0 0 153.000000 148.000000"
 preserveAspectRatio="xMidYMid meet">

<g transform="translate(0.000000,148.000000) scale(0.100000,-0.100000)"
fill="#000000" stroke="none">
<path d="M118 1453 l-96 -4 -5 -37 c-3 -20 -6 -243 -6 -495 l-1 -459 188 7
c103 3 315 8 472 9 l285 3 3 33 3 33 -318 -7 c-175 -4 -372 -11 -437 -16 -66
-5 -123 -7 -128 -4 -4 3 -8 198 -8 434 l0 429 33 5 c192 32 1293 33 1325 1 7
-6 28 -588 27 -745 l0 -105 -77 4 -78 3 0 -35 c0 -34 0 -34 52 -39 29 -3 78
-5 108 -4 l55 1 0 75 c0 270 -18 896 -27 901 -25 16 -1002 24 -1370 12z"/>
<path d="M310 1333 c-25 -1 -73 -5 -107 -9 l-63 -6 0 -370 0 -370 23 6 c12 3
112 9 222 12 110 3 211 7 225 9 14 2 85 4 159 4 l133 1 -7 23 c-31 101 -9 163
75 211 46 26 66 31 139 34 75 3 92 0 130 -20 62 -32 84 -66 85 -130 1 -29 -3
-68 -7 -85 l-9 -33 41 0 40 0 -5 208 c-4 114 -9 275 -13 357 l-6 150 -80 6
c-79 6 -889 8 -975 2z m200 -148 l0 -35 -132 4 c-115 3 -133 6 -136 20 -9 43
1 46 138 46 l130 0 0 -35z m378 -194 c2 -13 0 -27 -5 -31 -4 -4 -149 -11 -320
-15 l-313 -7 0 36 0 35 148 3 c81 2 224 3 317 3 l170 0 3 -24z m-161 -133 c2
-14 0 -29 -5 -32 -5 -3 -112 -6 -238 -7 l-229 -1 -3 30 -3 31 73 4 c40 2 147
3 237 3 l164 -1 4 -27z"/>
<path d="M1085 811 c-48 -9 -93 -31 -119 -60 -24 -26 -16 -84 16 -119 32 -34
101 -62 153 -62 35 0 49 6 74 30 29 30 51 83 51 126 0 32 -36 72 -73 79 -17 4
-39 8 -47 9 -8 2 -33 0 -55 -3z"/>
<path d="M1034 342 c0 -97 -4 -210 -8 -249 -5 -55 -4 -73 5 -73 24 0 76 49
100 94 13 25 26 46 29 46 3 0 18 -18 33 -40 27 -38 117 -110 117 -93 0 4 -13
76 -29 158 -16 83 -34 192 -41 243 -11 80 -15 92 -29 85 -20 -10 -130 -10
-156 -1 -20 8 -20 4 -21 -170z"/>
</g>
</svg>
