<?xml version="1.0" standalone="no"?>
<!DOCTYPE svg PUBLIC "-//W3C//DTD SVG 20010904//EN"
 "http://www.w3.org/TR/2001/REC-SVG-20010904/DTD/svg10.dtd">
<svg version="1.0" xmlns="http://www.w3.org/2000/svg"
 width="512.000000pt" height="512.000000pt" viewBox="0 0 512.000000 512.000000"
 preserveAspectRatio="xMidYMid meet">

<g transform="translate(0.000000,512.000000) scale(0.100000,-0.100000)"
fill="#000000" stroke="none">
<path d="M2480 4903 c-14 -2 -52 -13 -85 -25 -189 -66 -346 -260 -406 -503
-31 -125 -31 -304 -1 -429 55 -221 192 -411 352 -487 328 -156 685 80 774 513
21 99 21 277 0 375 -73 356 -353 601 -634 556z m-70 -743 l0 -230 -90 0 -90 0
0 230 0 230 90 0 90 0 0 -230z m440 0 l0 -230 -90 0 -90 0 0 230 0 230 90 0
90 0 0 -230z"/>
<path d="M3055 3452 c-120 -137 -324 -231 -501 -232 -176 0 -361 79 -489 209
-27 28 -56 51 -65 51 -8 0 -38 -13 -66 -29 -261 -150 -430 -552 -499 -1188 -8
-78 -15 -146 -15 -152 0 -5 22 -23 50 -41 112 -72 215 -218 270 -383 l23 -69
27 74 c64 175 167 318 275 382 l31 18 -30 86 c-41 122 -48 288 -17 416 54 227
208 401 396 451 164 42 328 -6 456 -134 180 -181 243 -472 157 -730 l-24 -68
51 -29 c109 -61 214 -196 274 -354 15 -41 32 -84 36 -95 6 -17 10 -11 25 30
32 92 79 186 124 250 45 63 139 155 158 155 22 0 -13 391 -52 601 -80 426
-229 687 -455 798 -35 17 -71 31 -81 30 -11 0 -37 -21 -59 -47z"/>
<path d="M783 2845 c-125 -58 -213 -207 -239 -405 -7 -57 35 -224 72 -288 120
-204 324 -249 483 -106 65 58 121 169 146 286 18 86 18 87 -4 182 -39 167
-111 274 -223 330 -71 35 -161 36 -235 1z m17 -445 l0 -90 -60 0 -60 0 0 90 0
90 60 0 60 0 0 -90z m320 0 l0 -90 -65 0 -65 0 0 90 0 90 65 0 65 0 0 -90z"/>
<path d="M2443 2845 c-65 -33 -147 -119 -179 -190 -14 -30 -35 -99 -46 -154
-20 -94 -20 -103 -6 -163 39 -155 90 -247 175 -312 l53 -41 -93 -12 c-174 -24
-259 -88 -342 -258 -94 -191 -139 -439 -152 -827 l-6 -198 116 0 117 0 0 255
0 255 95 0 95 0 0 -515 0 -515 310 0 310 0 0 515 0 515 90 0 90 0 0 -255 0
-255 115 0 c113 0 115 0 115 23 -2 157 -23 518 -35 607 -47 352 -149 555 -316
624 -33 14 -100 27 -212 41 l-48 6 39 29 c84 61 138 151 173 290 21 82 21 86
5 180 -41 235 -173 380 -347 380 -50 0 -77 -6 -116 -25z m17 -445 l0 -90 -60
0 -60 0 0 90 0 90 60 0 60 0 0 -90z m320 0 l0 -90 -65 0 -65 0 0 90 0 90 65 0
65 0 0 -90z"/>
<path d="M4103 2845 c-65 -33 -147 -119 -179 -189 -34 -76 -67 -231 -59 -284
8 -53 45 -163 75 -221 12 -25 45 -68 74 -96 129 -129 301 -123 429 14 57 61
89 127 118 242 21 81 21 86 5 179 -41 235 -173 380 -347 380 -50 0 -77 -6
-116 -25z m17 -445 l0 -90 -60 0 -60 0 0 90 0 90 60 0 60 0 0 -90z m320 0 l0
-90 -65 0 -65 0 0 90 0 90 65 0 65 0 0 -90z"/>
<path d="M1225 1909 c-99 -100 -258 -153 -393 -129 -85 14 -161 49 -233 105
l-56 44 -29 -18 c-106 -65 -198 -251 -249 -505 -34 -170 -45 -281 -52 -513
l-6 -203 117 0 116 0 0 255 0 255 90 0 90 0 0 -515 0 -515 315 0 315 0 0 515
0 515 90 0 90 0 0 -255 0 -255 115 0 115 0 0 128 c0 298 -35 612 -87 777 -55
173 -138 292 -238 339 -30 15 -55 26 -57 26 -2 0 -25 -23 -53 -51z"/>
<path d="M4545 1904 c-112 -99 -264 -147 -392 -124 -89 15 -177 57 -241 115
-51 46 -53 47 -85 34 -17 -7 -55 -36 -82 -64 -152 -154 -235 -479 -252 -982
l-6 -193 116 0 117 0 0 255 0 255 90 0 90 0 0 -515 0 -515 315 0 315 0 0 515
0 515 90 0 90 0 0 -255 0 -255 116 0 117 0 -7 208 c-13 371 -35 550 -92 721
-52 157 -129 267 -220 314 -28 15 -30 14 -79 -29z"/>
</g>
</svg>
