<?xml version="1.0" standalone="no"?>
<!DOCTYPE svg PUBLIC "-//W3C//DTD SVG 20010904//EN"
 "http://www.w3.org/TR/2001/REC-SVG-20010904/DTD/svg10.dtd">
<svg version="1.0" xmlns="http://www.w3.org/2000/svg"
 width="157.000000pt" height="110.000000pt" viewBox="0 0 157.000000 110.000000"
 preserveAspectRatio="xMidYMid meet">

<g transform="translate(0.000000,110.000000) scale(0.100000,-0.100000)"
fill="#000000" stroke="none">
<path d="M710 1066 c-30 -12 -198 -76 -373 -141 -174 -66 -317 -122 -317 -125
0 -3 172 -91 383 -197 l383 -191 182 91 c100 50 181 91 179 93 -8 8 -340 104
-360 104 -34 0 -61 33 -53 65 8 32 33 43 49 22 7 -9 102 -43 212 -77 453 -139
455 -139 455 -160 0 -10 -5 -31 -12 -45 -9 -19 -8 -31 1 -49 10 -19 11 -45 2
-125 -6 -56 -11 -141 -11 -190 0 -84 1 -88 26 -101 22 -12 29 -12 52 1 l27 15
-4 145 c-2 79 -6 164 -10 189 -5 29 -2 54 6 70 10 20 10 29 -2 46 -7 12 -15
41 -17 65 l-3 43 -88 27 c-49 15 -91 30 -94 32 -2 3 48 31 111 63 64 31 116
60 116 64 0 8 -750 290 -771 290 -8 -1 -39 -11 -69 -24z"/>
<path d="M326 533 c-15 -73 -36 -226 -32 -230 3 -3 40 -17 83 -32 43 -14 114
-47 158 -73 91 -54 245 -174 245 -191 0 -6 24 12 53 39 97 95 246 187 365 227
40 13 75 27 79 30 6 7 -27 231 -38 248 -4 7 -82 -26 -229 -99 l-222 -111 -182
90 c-99 49 -197 99 -217 109 -48 26 -56 25 -63 -7z"/>
</g>
</svg>
