<?xml version="1.0" standalone="no"?>
<!DOCTYPE svg PUBLIC "-//W3C//DTD SVG 20010904//EN"
 "http://www.w3.org/TR/2001/REC-SVG-20010904/DTD/svg10.dtd">
<svg version="1.0" xmlns="http://www.w3.org/2000/svg"
 width="158.000000pt" height="150.000000pt" viewBox="0 0 158.000000 150.000000"
 preserveAspectRatio="xMidYMid meet">

<g transform="translate(0.000000,150.000000) scale(0.100000,-0.100000)"
fill="#000000" stroke="none">
<path d="M158 1473 l-108 -4 0 -501 0 -500 223 6 c239 8 560 15 670 16 64 0
67 1 67 24 0 14 -4 28 -10 31 -11 7 -436 7 -485 0 -16 -2 -100 -6 -185 -10
-85 -3 -170 -8 -187 -11 l-33 -6 0 440 0 439 78 7 c265 21 507 28 797 22 327
-6 483 -14 489 -25 3 -4 9 -159 15 -346 6 -187 14 -377 17 -422 l6 -83 -87 0
-87 0 7 -33 c4 -17 8 -33 9 -34 0 0 48 -3 106 -5 l105 -3 -1 70 c-18 989 -14
913 -38 920 -24 7 -1202 14 -1368 8z"/>
<path d="M360 1350 c-58 -4 -122 -8 -142 -9 l-38 -1 0 -369 c0 -204 3 -372 8
-374 4 -2 61 -1 127 3 168 11 401 20 529 20 99 0 108 1 101 18 -5 9 -10 44
-13 78 -4 57 -2 63 27 96 98 112 336 111 394 -2 18 -36 20 -132 2 -172 -6 -16
-1 -18 38 -18 l46 0 -5 133 c-3 72 -9 232 -13 355 -5 142 -12 227 -19 234 -14
14 -877 20 -1042 8z m316 -79 c140 -66 208 -193 184 -344 -25 -161 -152 -269
-320 -271 -93 -1 -168 30 -234 99 -64 66 -89 137 -84 240 6 100 35 163 108
228 63 57 114 75 210 76 63 1 85 -4 136 -28z"/>
<path d="M380 1172 c-20 -16 -21 -21 -11 -41 18 -33 65 -26 69 11 5 38 -28 54
-58 30z"/>
<path d="M602 1091 c-8 -5 -34 -6 -58 -3 l-44 5 0 -109 c0 -60 4 -115 9 -122
4 -8 19 -12 32 -10 23 3 24 7 27 83 3 86 12 105 48 105 33 0 44 -28 44 -109
l0 -71 35 0 35 0 0 74 c0 40 -5 87 -11 105 -16 46 -81 75 -117 52z"/>
<path d="M370 970 l0 -120 35 0 35 0 0 120 0 120 -35 0 -35 0 0 -120z"/>
<path d="M1088 816 c-88 -31 -111 -68 -86 -134 30 -78 180 -130 241 -82 15 12
34 35 43 52 20 39 22 112 3 134 -35 42 -129 56 -201 30z"/>
<path d="M1073 276 l-2 -256 31 17 c28 16 62 56 94 109 11 17 15 15 53 -28 45
-51 99 -93 107 -85 3 3 -2 42 -11 88 -9 46 -29 156 -45 244 -27 157 -28 160
-51 156 -37 -7 -111 -6 -144 3 l-30 7 -2 -255z"/>
</g>
</svg>
