<?xml version="1.0" standalone="no"?>
<!DOCTYPE svg PUBLIC "-//W3C//DTD SVG 20010904//EN"
 "http://www.w3.org/TR/2001/REC-SVG-20010904/DTD/svg10.dtd">
<svg version="1.0" xmlns="http://www.w3.org/2000/svg"
 width="173.000000pt" height="127.000000pt" viewBox="0 0 173.000000 127.000000"
 preserveAspectRatio="xMidYMid meet">

<g transform="translate(0.000000,127.000000) scale(0.100000,-0.100000)"
fill="#000000" stroke="none">
<path d="M775 1249 c-63 -20 -89 -38 -118 -79 -30 -43 -22 -79 27 -125 52 -50
91 -61 251 -70 61 -3 128 -10 150 -15 22 -5 41 -7 43 -5 3 2 -3 23 -12 46 -12
31 -15 56 -11 90 11 81 -31 131 -141 164 -65 20 -116 18 -189 -6z m156 -45 c5
-14 2 -32 -8 -50 -9 -16 -22 -41 -30 -56 -8 -16 -19 -28 -24 -28 -17 0 -9 34
17 72 21 30 24 41 15 52 -15 18 -38 11 -46 -15 -8 -25 -25 -25 -25 0 0 50 84
70 101 25z m-43 -161 c-5 -25 -28 -28 -28 -4 0 12 6 21 16 21 9 0 14 -7 12
-17z"/>
<path d="M372 1023 c-65 -32 -112 -119 -112 -208 0 -120 67 -189 155 -159 106
35 167 201 115 309 -33 69 -92 91 -158 58z"/>
<path d="M1231 1003 c-30 -30 -41 -49 -46 -87 -10 -64 9 -144 45 -195 96 -132
240 -75 240 95 0 111 -71 209 -160 221 -36 5 -43 2 -79 -34z"/>
<path d="M560 673 c0 -6 6 -28 14 -49 8 -24 12 -60 9 -90 -7 -67 12 -95 85
-131 49 -24 69 -28 142 -28 73 0 93 4 142 28 63 31 90 64 90 112 0 48 -27 81
-89 111 -48 24 -73 28 -191 35 -76 4 -152 11 -169 15 -20 4 -33 3 -33 -3z
m266 -115 c-3 -29 -6 -63 -6 -75 0 -13 -4 -23 -10 -23 -6 0 -10 32 -10 75 0
63 3 75 16 75 14 0 16 -8 10 -52z m-6 -133 c0 -8 -7 -15 -15 -15 -8 0 -15 7
-15 15 0 8 7 15 15 15 8 0 15 -7 15 -15z"/>
<path d="M215 618 c-96 -53 -141 -161 -185 -448 -11 -74 -23 -143 -26 -152 -5
-17 11 -18 242 -18 l247 0 -7 180 c-7 191 -24 309 -53 369 -16 33 -22 36 -69
41 -27 3 -62 13 -77 23 -30 20 -44 21 -72 5z"/>
<path d="M1441 612 c-14 -9 -47 -19 -75 -22 -47 -5 -52 -8 -69 -43 -29 -58
-46 -176 -53 -369 l-7 -178 247 0 c231 0 247 1 242 18 -3 9 -15 79 -26 155
-43 281 -89 394 -182 443 -34 18 -47 17 -77 -4z"/>
<path d="M550 210 l0 -30 315 0 315 0 0 30 0 30 -315 0 -315 0 0 -30z"/>
</g>
</svg>
