<?xml version="1.0" standalone="no"?>
<!DOCTYPE svg PUBLIC "-//W3C//DTD SVG 20010904//EN"
 "http://www.w3.org/TR/2001/REC-SVG-20010904/DTD/svg10.dtd">
<svg version="1.0" xmlns="http://www.w3.org/2000/svg"
 width="149.000000pt" height="143.000000pt" viewBox="0 0 149.000000 143.000000"
 preserveAspectRatio="xMidYMid meet">

<g transform="translate(0.000000,143.000000) scale(0.100000,-0.100000)"
fill="#000000" stroke="none">
<path d="M320 1361 c0 -41 5 -62 16 -72 49 -40 69 -147 44 -225 -14 -41 -2
-57 35 -48 48 11 358 64 360 62 2 -2 6 -39 10 -83 l7 -81 -140 -28 c-214 -42
-212 -41 -212 -80 0 -18 -3 -54 -6 -80 l-7 -46 527 0 526 0 0 370 0 370 -580
0 -580 0 0 -59z"/>
<path d="M211 1267 c-87 -45 -93 -197 -9 -242 29 -15 42 -17 64 -10 45 16 74
68 74 133 0 50 -3 58 -39 93 -42 42 -53 45 -90 26z"/>
<path d="M585 994 c-60 -13 -135 -23 -165 -24 -30 0 -73 -1 -95 -1 -81 -2
-136 -1 -159 1 -13 1 -55 -16 -95 -39 l-71 -42 0 -204 0 -205 35 0 35 0 0 176
0 175 22 -3 23 -3 3 -407 2 -408 50 0 50 0 0 260 0 260 25 0 25 0 0 -260 0
-260 40 0 40 0 0 264 c0 200 4 284 16 347 9 46 19 124 23 174 l6 90 165 35
165 35 3 33 c4 39 7 39 -143 6z"/>
<path d="M416 608 c-3 -13 -6 -26 -6 -30 0 -5 230 -8 510 -8 l510 0 0 30 0 30
-504 0 -504 0 -6 -22z"/>
<path d="M560 469 c-64 -24 -92 -137 -50 -203 12 -20 26 -36 31 -37 5 -1 30
-2 56 -2 39 -1 49 3 66 25 26 35 34 116 14 154 -29 56 -72 80 -117 63z"/>
<path d="M894 461 c-57 -35 -71 -150 -26 -210 17 -23 26 -26 72 -24 43 1 57 6
72 25 40 52 36 145 -9 189 -38 38 -71 44 -109 20z"/>
<path d="M1252 467 c-63 -36 -83 -142 -39 -208 21 -32 26 -34 77 -32 60 1 73
12 92 74 29 99 -56 207 -130 166z"/>
<path d="M558 161 c-21 -17 -88 -127 -88 -145 0 -3 59 -6 130 -6 72 0 130 4
130 8 0 19 -78 129 -103 145 -33 22 -39 21 -69 -2z"/>
<path d="M906 159 c-22 -17 -86 -124 -86 -144 0 -3 59 -5 130 -5 72 0 130 3
130 6 0 18 -75 126 -100 144 -35 25 -41 25 -74 -1z"/>
<path d="M1257 160 c-26 -21 -87 -118 -87 -139 0 -8 40 -11 131 -11 149 0 144
-6 83 86 -30 45 -75 84 -97 84 -2 0 -16 -9 -30 -20z"/>
</g>
</svg>
